<?xml version="1.0" encoding="UTF-8" standalone="no"?>
<svg
   xmlns:dc="http://purl.org/dc/elements/1.1/"
   xmlns:cc="http://creativecommons.org/ns#"
   xmlns:rdf="http://www.w3.org/1999/02/22-rdf-syntax-ns#"
   xmlns:svg="http://www.w3.org/2000/svg"
   xmlns="http://www.w3.org/2000/svg"
   xmlns:sodipodi="http://sodipodi.sourceforge.net/DTD/sodipodi-0.dtd"
   xmlns:inkscape="http://www.inkscape.org/namespaces/inkscape"
   viewBox="0 0 1920 1920"
   version="1.1"
   id="svg14"
   sodipodi:docname="lock_icon_125649.svg"
   inkscape:export-filename="/home/jonas/Projects/dicum/resources/icons/lock_icon_white_bg.png"
   inkscape:export-xdpi="25.6"
   inkscape:export-ydpi="25.6"
   inkscape:version="0.92.5 (2060ec1f9f, 2020-04-08)">
  <metadata
     id="metadata20">
    <rdf:RDF>
      <cc:Work
         rdf:about="">
        <dc:format>image/svg+xml</dc:format>
        <dc:type
           rdf:resource="http://purl.org/dc/dcmitype/StillImage" />
      </cc:Work>
    </rdf:RDF>
  </metadata>
  <defs
     id="defs18" />
  <sodipodi:namedview
     pagecolor="#ffffff"
     bordercolor="#666666"
     borderopacity="1"
     objecttolerance="10"
     gridtolerance="10"
     guidetolerance="10"
     inkscape:pageopacity="0"
     inkscape:pageshadow="2"
     inkscape:window-width="1866"
     inkscape:window-height="2017"
     id="namedview16"
     showgrid="false"
     inkscape:zoom="0.49166667"
     inkscape:cx="544.81693"
     inkscape:cy="1197.8864"
     inkscape:window-x="36"
     inkscape:window-y="70"
     inkscape:window-maximized="0"
     inkscape:current-layer="svg14" />
  <style
     id="style2">
        .st0{fill:#fff}.st1{fill:none;stroke:#231f20;stroke-width:50;stroke-linecap:round;stroke-linejoin:round;stroke-miterlimit:10}
    </style>
  <path
     class="st0"
     d="M1279.7 536.6v362.6h-135.5V543.8c0-50.9-20.6-96.9-53.9-130.2-33.3-33.3-79.4-54-130.2-54-101.7 0-184.2 82.5-184.2 184.2v172.8H640.3v-180C640.3 360.1 783.4 217 960 217c88.3 0 168.2 35.8 226 93.6 57.9 57.8 93.7 137.8 93.7 226z"
     id="Layer_8" />
  <path
     class="st0"
     d="M1295.4 899.2H624.6c-69 0-124.9 62.1-124.9 138.6v526.6c0 76.6 55.9 138.6 124.9 138.6h670.7c69 0 124.9-62.1 124.9-138.6v-526.6c.1-76.5-55.9-138.6-124.8-138.6zm-294.1 423.2V1436c0 22.8-18.5 41.3-41.3 41.3s-41.3-18.5-41.3-41.3v-113.6c-36.8-16-62.6-52.7-62.6-95.3 0-57.4 46.5-103.9 103.9-103.9s103.9 46.5 103.9 103.9c0 42.6-25.8 79.3-62.6 95.3z"
     id="Layer_9" />
  <path
     class="st0"
     d="M960 1123.2c-57.4 0-103.9 46.5-103.9 103.9 0 42.7 25.8 79.4 62.6 95.3V1436c0 22.8 18.5 41.3 41.3 41.3s41.3-18.5 41.3-41.3v-113.6c36.8-16 62.6-52.7 62.6-95.3 0-57.4-46.5-103.9-103.9-103.9z"
     id="Layer_10" />
  <g
     id="STROKES">
    <path
       class="st1"
       d="M1295.4 899.2H624.6c-69 0-124.9 62.1-124.9 138.6v526.6c0 76.6 55.9 138.6 124.9 138.6h670.7c69 0 124.9-62.1 124.9-138.6v-526.6c.1-76.5-55.9-138.6-124.8-138.6zm-294.1 423.2V1436c0 22.8-18.5 41.3-41.3 41.3s-41.3-18.5-41.3-41.3v-113.6c-36.8-16-62.6-52.7-62.6-95.3 0-57.4 46.5-103.9 103.9-103.9s103.9 46.5 103.9 103.9c0 42.6-25.8 79.3-62.6 95.3z"
       id="path7" />
    <path
       class="st1"
       d="M1063.9 1227c0 42.7-25.8 79.4-62.6 95.3V1436c0 22.8-18.5 41.3-41.3 41.3s-41.3-18.5-41.3-41.3v-113.6c-36.8-16-62.6-52.7-62.6-95.3 0-57.4 46.5-103.9 103.9-103.9s103.9 46.5 103.9 103.8z"
       id="path9" />
    <path
       class="st1"
       d="M1279.7 536.6v362.6h-135.5V543.8c0-50.9-20.6-96.9-53.9-130.2s-79.4-53.9-130.2-53.9c-101.7 0-184.2 82.5-184.2 184.2v172.8H640.3V536.6c0-176.6 143.1-319.7 319.7-319.7 88.3 0 168.2 35.8 226 93.6 57.9 57.9 93.7 137.9 93.7 226.1z"
       id="path11" />
  </g>
</svg>
